<svg xmlns="http://www.w3.org/2000/svg" version="1.1" xmlns:xlink="http://www.w3.org/1999/xlink" xmlns:svgjs="http://svgjs.dev/svgjs" width="100%" height="100%" viewBox="0 0 1000 600"><rect width="1000" height="600" x="0" y="0" fill="#f7e9ea"/><g><rect width="333.3333333333333" height="333.3333333333333" rx="13.333333333333334" ry="13.333333333333334" y="322.08348833157174" fill="#d1847e" transform="matrix(0.4168594432510712,0,0,0.41685944325107116,0,96.25988842468854)" x="299.8613891601562"/><path d="M466.5280785338413 413.7501589021227L466.5280785338413 413.7501589021227Q472.3891495749887 413.7501589021227 476.51360697431465 417.0605786568448Q480.58379519733364 420.370998411567 480.58379519733364 427.80587556561505L480.58379519733364 427.80587556561505Q480.58379519733364 432.8529089621586 478.6301048502845 444.0323592813842Q476.6764145032354 455.15754042430285 474.7227241561863 468.45348861949833L474.7227241561863 468.45348861949833L472.0092653408403 486.7964702112374L488.7784408196786 478.60182458889244Q503.6481951277748 471.54683166899275 514.7733762706935 466.06564486199386Q525.898557413612 460.6387272313018 532.1937818652148 460.6387272313018L532.1937818652148 460.6387272313018Q537.6206994959068 460.6387272313018 541.1481959558566 464.54610792540007Q544.6756924158065 468.45348861949833 544.6756924158065 474.3145596606457L544.6756924158065 474.3145596606457Q544.6756924158065 485.22266409833674 530.9998599864625 488.1531996189104Q517.3240275571186 491.0837351394841 494.25962762667757 494.6112315994339L494.25962762667757 494.6112315994339L475.5367618007901 497.7588438252353L488.7784408196786 511.4346762545792Q502.4542732490225 525.1105086839232 511.4629565159713 534.0649227745649Q520.4716397829202 543.0736060415137 520.4716397829202 551.2682516638587L520.4716397829202 551.2682516638587Q520.4716397829202 556.7494384708576 516.5642590888217 560.2769349308074Q512.6568783947237 563.7501622144504 507.555575821873 563.7501622144504L507.555575821873 563.7501622144504Q498.16700832077584 563.7501622144504 491.7089763402523 551.8652126032348Q485.30521353603575 539.9259938157123 475.10260839033475 521.2031279898249L475.10260839033475 521.2031279898249L466.5280785338413 504.759567568828L457.51939526689256 521.2031279898249Q447.7509435316469 540.3058780498608 441.1301040222026 552.0280201321556Q434.5092645127583 563.7501622144504 425.12069701166115 563.7501622144504L425.12069701166115 563.7501622144504Q420.39927867295904 563.7501622144504 416.32909044994005 560.2769349308074Q412.2046330506141 556.7494384708576 412.2046330506141 551.2682516638587L412.2046330506141 551.2682516638587Q412.2046330506141 543.0736060415137 421.3761238464836 534.0649227745649Q430.6018838186601 525.1105086839232 443.84356283754863 511.4346762545792L443.84356283754863 511.4346762545792L457.1395110327441 497.7588438252353L438.796529441005 494.6112315994339Q415.3522452764155 491.0837351394841 401.83922037599234 488.1531996189104Q388.3804646518761 485.22266409833674 388.3804646518761 474.3145596606457L388.3804646518761 474.3145596606457Q388.3804646518761 468.45348861949833 391.9079611118259 464.54610792540007Q395.43545757177577 460.6387272313018 401.2965286129231 460.6387272313018L401.2965286129231 460.6387272313018Q407.9173681223674 460.6387272313018 418.6626650311376 466.06564486199386Q429.4079619399078 471.54683166899275 443.84356283754863 478.60182458889244L443.84356283754863 478.60182458889244L460.6670074926939 486.7964702112374L457.9535486773479 468.45348861949833Q455.99985833029876 455.15754042430285 454.4260522173981 444.19516681030495Q452.8522461044974 433.287062372614 452.8522461044974 427.80587556561505L452.8522461044974 427.80587556561505Q452.8522461044974 420.370998411567 456.542550093368 417.0605786568448Q460.2871232585455 413.7501589021227 466.5280785338413 413.7501589021227Z " fill="#f7e9ea" transform="matrix(0.4168594432510712,0,0,0.41685944325107116,0,96.25988842468854)"/><path d="M782.3114010766035 563.7501567775104L782.3114010766035 563.7501567775104Q762.7192356391017 563.7501567775104 747.8701528934848 555.1263700649924Q733.021070147868 546.4756340189979 724.7745741040227 531.1414632708019Q716.5280780601773 515.8342418560825 716.5280780601773 495.83783641643146L716.5280780601773 495.83783641643146Q716.5280780601773 481.09655100472105 721.4867554198752 468.78070560590635Q726.445432779573 456.437910873615 735.2578648264273 447.3290361585179Q744.0972462067582 438.2201614434208 756.0358009369003 433.1536867498165Q767.9474063335657 428.1141613896888 782.1227557422671 428.1141613896888L782.1227557422671 428.1141613896888Q790.0728091178696 428.1141613896888 799.9632145037887 429.9736653995755Q809.8805692231844 431.80622007598555 819.5823292747671 437.43863077259886L819.5823292747671 437.43863077259886L820.3369106121123 465.5737349221887L808.3175078815405 465.5737349221887L804.4368038609074 443.0710414692121Q799.2086331664433 440.16051345373734 794.2499558067456 438.9747427807661Q789.2912784470477 437.8159214412715 784.6559930890693 437.8159214412715L784.6559930890693 437.8159214412715Q771.6394650198625 437.8159214412715 760.9675289631215 444.4185081430431Q750.2955929063805 451.0210948448146 743.9894488728518 463.929825580115Q737.683304839323 476.81160698193867 737.683304839323 495.83783641643146L737.683304839323 495.83783641643146Q737.683304839323 514.8640658509241 743.5043608702726 527.8536445866544Q749.3254169012222 540.8432233223846 759.7009102897204 547.4458100241561Q770.1033530116953 554.0483967259277 783.2815770817617 554.0483967259277L783.2815770817617 554.0483967259277Q788.913987778375 554.0483967259277 794.8428411432311 552.7817780525266Q800.7447451746106 551.5151593791255 806.3771558712239 548.8202260314637L806.3771558712239 548.8202260314637L810.257859891857 526.2905832450106L822.2772626224289 526.2905832450106L821.5226812850835 554.4256873946003Q812.5755025708462 559.2765674203918 802.6042491844972 561.5133620989511Q792.6060464646717 563.7501567775104 782.3114010766035 563.7501567775104ZM910.5632790918315 562.7799807723521L910.5632790918315 562.7799807723521Q903.5834017213873 562.7799807723521 898.9211670299323 558.7106314173827Q894.2858816719539 554.6412820624133 893.1001109989827 547.8500500263054L893.1001109989827 547.8500500263054Q885.1500576233801 555.6114580675716 879.1403562580942 559.4921620882046Q873.1306548928083 563.3728661088378 864.5877161807201 563.3728661088378L864.5877161807201 563.3728661088378Q853.9157801239792 563.3728661088378 846.2621694166195 557.2553674096453Q838.5816093757832 551.137868710453 838.5816093757832 539.118465979881L838.5816093757832 539.118465979881Q838.5816093757832 533.4860552832677 841.1956947230152 528.6351752574762Q843.8367294037238 523.784295231685 850.816606774168 519.12206054023Q857.7964841446122 514.4598258487749 870.7860628803425 509.7975911573199L870.7860628803425 509.7975911573199Q875.2596522374612 508.2614791491526 881.0807082684107 506.50977247317246Q886.9017642993604 504.7580657971922 892.72282033031 503.4105991233613L892.72282033031 503.4105991233613L892.72282033031 498.55971909756994Q892.72282033031 484.3843696888685 888.4648256410043 479.7221349974135Q884.1798816182219 475.0868496394351 874.4781215666392 475.0868496394351L874.4781215666392 475.0868496394351Q872.3491242219864 475.0868496394351 869.7350388747543 475.2754949737714Q867.1209535275223 475.46414030810774 863.9948308442346 476.2456709789297L863.9948308442346 476.2456709789297L860.3297214914144 488.85795904598723Q857.6078388102759 498.1554790954207 850.2237214376825 498.1554790954207L850.2237214376825 498.1554790954207Q842.0850227277436 498.1554790954207 841.1148467225853 490.20542571981815L841.1148467225853 490.20542571981815Q843.8367294037238 479.1561989944045 854.0235774578856 472.6614096265394Q864.2104255120474 466.1396709251977 878.9517109237579 466.1396709251977L878.9517109237579 466.1396709251977Q894.2858816719539 466.1396709251977 901.6430497110707 473.82023096603405Q909.0271670836643 481.47384167339374 909.0271670836643 499.90718577140086L909.0271670836643 499.90718577140086L909.0271670836643 541.2474633245338Q909.0271670836643 547.4458100241561 910.9675190939809 550.0598953713882Q912.9078711042973 552.7009300520967 916.0070444541085 552.7009300520967L916.0070444541085 552.7009300520967Q918.5402818009106 552.7009300520967 920.2650391434142 551.5151593791255Q922.0167458193945 550.3563380396309 923.5798071610383 548.4159860293144L923.5798071610383 548.4159860293144L927.4605111816714 552.7009300520967Q923.957097829711 558.3063914152334 919.7799511408351 560.5431860937928Q915.6297537854358 562.7799807723521 910.5632790918315 562.7799807723521ZM855.8561321342958 536.2079379644061L855.8561321342958 536.2079379644061Q855.8561321342958 543.9693460056724 860.3297214914144 547.2571646898198Q864.7763615150565 550.5449833739673 871.378948216828 550.5449833739673L871.378948216828 550.5449833739673Q874.2894762323028 550.5449833739673 876.9035615795349 549.7904020366219Q879.5176469267668 549.0088713658 883.2097056130636 546.7720766872407Q886.9017642993604 544.5352820086813 892.72282033031 540.2772873193755L892.72282033031 540.2772873193755L892.72282033031 510.57912182814187Q887.6832949701824 511.95353783544937 882.832414944391 513.5974471775231Q877.9815349185996 515.2413565195968 874.8823615687885 516.4001778590914L874.8823615687885 516.4001778590914Q866.5280681910367 519.7149458767155 862.4587188360673 523.1914098951993Q858.3893694810979 526.6948232471598 857.1227508076968 529.9826419313073Q855.8561321342958 533.2974099489313 855.8561321342958 536.2079379644061ZM985.6710714911677 560.8396287620355L935.5992098916103 560.8396287620355L935.5992098916103 553.8597513915913L950.9333806398063 551.137868710453Q951.1220259741426 543.3764606691867 951.229823308049 535.6150526279205Q951.3106713084788 527.8536445866544 951.3106713084788 520.0922365453882L951.3106713084788 520.0922365453882L951.3106713084788 478.9675536600682L935.2219192229376 478.9675536600682L935.2219192229376 470.4246149479801L951.7149113106283 468.2956176033272Q953.0623779844592 452.77280152079487 956.0807033338405 443.151889469642Q959.0720793497451 433.5579267519658 966.2675513880023 426.3624547137086L966.2675513880023 426.3624547137086Q972.4658980876245 420.1641080140863 979.2571301237325 417.8464653350971Q986.0483621598404 415.5018733226313 992.6509488616119 415.5018733226313L992.6509488616119 415.5018733226313Q999.4421808977198 415.5018733226313 1004.6703515921837 417.92731333552695Q1009.9254716201244 420.35275334842265 1011.2729382939555 425.98516404503596L1011.2729382939555 425.98516404503596Q1011.0842929596191 429.6772227313327 1007.9851196098078 432.18351074465824Q1004.8859462599968 434.7167480914604 999.4421808977198 434.7167480914604L999.4421808977198 434.7167480914604Q992.4623035272756 434.7167480914604 985.4824261568314 428.8956920605108L985.4824261568314 428.8956920605108L980.0386607945544 424.63769737120504Q979.2571301237325 425.203633374214 978.5833967868169 425.7965187106996Q977.9096634499016 426.3624547137086 977.3167781134159 426.9553400501942L977.3167781134159 426.9553400501942Q972.2772527532882 431.9948654103219 969.6631674060562 442.1817134644837Q967.0490820588242 452.3685615186456 967.4263727274969 468.67290827199986L967.4263727274969 468.67290827199986L994.2140102032558 468.67290827199986L994.2140102032558 478.9675536600682L967.8036633961696 478.9675536600682L967.8036633961696 520.0922365453882Q967.8036633961696 527.8536445866544 967.911460730076 535.507255294014Q968.0192580639824 543.1878153348504 968.2079033983188 550.9492233761166L968.2079033983188 550.9492233761166L985.6710714911677 553.8597513915913L985.6710714911677 560.8396287620355ZM1049.5140424972774 475.0868496394351L1049.5140424972774 475.0868496394351Q1044.0702771350002 475.0868496394351 1038.5456637722937 478.1860229892462Q1033.0210504095867 481.2851963390574 1029.0325490550472 488.0764283751653Q1025.0440477005077 494.86766041127316 1023.885226361013 506.1324818044998L1023.885226361013 506.1324818044998L1059.2158025488598 506.1324818044998Q1066.195679919304 506.1324818044998 1068.4324745978633 503.22195378902495Q1070.6423199429464 500.3114257735501 1070.6423199429464 496.02648175076774L1070.6423199429464 496.02648175076774Q1070.6423199429464 490.3940710541545 1067.839589261378 485.6509883622696Q1065.0368585798096 480.9079056703847 1060.266826554448 477.9973776549099Q1055.5237438625632 475.0868496394351 1049.5140424972774 475.0868496394351ZM1049.2984478294643 563.3728661088378L1049.2984478294643 563.3728661088378Q1029.7062823919628 563.3728661088378 1017.875524995727 550.6527807078737Q1006.0447675994914 537.9326953069097 1006.0447675994914 515.6186471882695L1006.0447675994914 515.6186471882695Q1006.0447675994914 500.6887164422228 1012.1622662986838 489.6394897168092Q1018.2528156643996 478.5633136579189 1028.4396637185614 472.36496695829663Q1038.6265117727235 466.1396709251977 1050.6728638367717 466.1396709251977L1050.6728638367717 466.1396709251977Q1060.7519145570272 466.1396709251977 1068.9175626004426 470.6132602823164Q1077.0562613103816 475.0868496394351 1081.907141336173 483.3333456832804Q1086.758021361964 491.5798417271257 1086.758021361964 503.4105991233613L1086.758021361964 503.4105991233613Q1086.758021361964 506.69841780750875 1086.3807306932918 509.5280978225537Q1085.9764906911423 512.3308285041221 1085.4105546881333 514.2711805144386L1085.4105546881333 514.2711805144386L1023.5079356923403 514.2711805144386Q1023.885226361013 532.1116392759602 1032.428165073101 541.4361086588701Q1040.971103785189 550.7605780417803 1054.9308585260774 550.7605780417803L1054.9308585260774 550.7605780417803Q1064.2553279089875 550.7605780417803 1070.45367460861 546.960722021577Q1076.678970641709 543.1878153348504 1081.907141336173 537.1781139695645L1081.907141336173 537.1781139695645L1086.5693760276276 540.8432233223846Q1081.125610665351 551.137868710453 1071.8280906159175 557.2553674096453Q1062.5036212330074 563.3728661088378 1049.2984478294643 563.3728661088378ZM1046.0106291453167 452.77280152079487L1040.971103785189 449.0807428344981Q1049.109802495128 435.309633427946 1058.2456265437017 421.7271693557302L1058.2456265437017 421.7271693557302Q1060.9405598913636 417.2535799986115 1063.5815945720724 415.5018733226313Q1066.195679919304 413.7501666466511 1068.70196793263 413.7501666466511L1068.70196793263 413.7501666466511Q1071.423850613768 413.7501666466511 1073.768442626234 415.5018733226313Q1076.0860853052232 417.2535799986115 1076.0860853052232 421.13428401924455L1076.0860853052232 421.13428401924455Q1076.0860853052232 423.07463602956113 1074.8194666318223 425.50007604245684Q1073.552847958421 427.9255160553525 1069.4834986034516 431.80622007598555L1069.4834986034516 431.80622007598555Q1063.4737972381658 437.2499854382625 1057.7605385411225 442.37035879882006Q1052.020330510603 447.51768149285425 1046.0106291453167 452.77280152079487L1046.0106291453167 452.77280152079487ZM1167.6599204587733 515.2413565195968L1167.6599204587733 515.2413565195968Q1167.6599204587733 534.2675859540896 1175.3404804996098 543.2686633352803Q1182.9940912069692 552.2966900499475 1194.6362032688685 552.2966900499475L1194.6362032688685 552.2966900499475Q1201.0501446363037 552.2966900499475 1205.981872662525 549.6826047027155Q1210.9405500222229 547.0685193554834 1216.3843153845 541.0588179901974L1216.3843153845 541.0588179901974L1216.3843153845 487.2948977043433Q1209.781728682728 481.47384167339374 1204.5266086547877 479.34484432874086Q1199.2984379603236 477.215846984088 1194.4475579345321 477.215846984088L1194.4475579345321 477.215846984088Q1187.2790352297516 477.215846984088 1181.1615365305593 481.1773990051509Q1175.044037831367 485.16590035969045 1171.3519791450703 493.6010417378721Q1167.6599204587733 502.03618311605373 1167.6599204587733 515.2413565195968ZM1248.400123554723 560.8396287620355L1218.3246673948165 562.7799807723521L1216.9502513875086 549.3861620344727Q1211.9107260273813 555.9887487362442 1205.4159366595159 559.680807422541Q1198.9211472916509 563.3728661088378 1189.785323243077 563.3728661088378L1189.785323243077 563.3728661088378Q1177.9545658468414 563.3728661088378 1169.0343364660807 557.3362154100752Q1160.11410708532 551.3265140447892 1155.155429725622 540.5737299876184Q1150.1967523659246 529.7939965969709 1150.1967523659246 515.6186471882695L1150.1967523659246 515.6186471882695Q1150.1967523659246 500.6887164422228 1155.6405177282013 489.6394897168092Q1161.0842830904785 478.5633136579189 1170.3818031399119 472.36496695829663Q1179.706272522822 466.1396709251977 1191.5370299190572 466.1396709251977L1191.5370299190572 466.1396709251977Q1198.3282619551655 466.1396709251977 1204.6344059886942 468.8615536063362Q1210.9405500222229 471.5834362874747 1216.9502513875086 478.75195899225525L1216.9502513875086 478.75195899225525L1216.9502513875086 434.9053934257967L1200.4572592998184 432.9650414154802L1200.4572592998184 426.1738093793723L1230.7213607940612 417.4422253329478L1233.4432434751993 419.00528667459173L1232.6617128043777 446.54750548769596L1232.6617128043777 551.5151593791255L1248.400123554723 553.8597513915913L1248.400123554723 560.8396287620355ZM1332.2125506670068 562.7799807723521L1332.2125506670068 562.7799807723521Q1325.2326732965626 562.7799807723521 1320.5704386051075 558.7106314173827Q1315.9082039136524 554.6412820624133 1314.749382574158 547.8500500263054L1314.749382574158 547.8500500263054Q1306.7993291985554 555.6114580675716 1300.7896278332696 559.4921620882046Q1294.752977134507 563.3728661088378 1286.2369877558954 563.3728661088378L1286.2369877558954 563.3728661088378Q1275.5650516991545 563.3728661088378 1267.884491658318 557.2553674096453Q1260.2308809509582 551.137868710453 1260.2308809509582 539.118465979881L1260.2308809509582 539.118465979881Q1260.2308809509582 533.4860552832677 1262.8449662981902 528.6351752574762Q1265.4590516454223 523.784295231685 1272.4389290158665 519.12206054023Q1279.4457557197875 514.4598258487749 1292.4353344555175 509.7975911573199L1292.4353344555175 509.7975911573199Q1296.9089238126362 508.2614791491526 1302.729979843586 506.50977247317246Q1308.5510358745355 504.7580657971922 1314.3720919054854 503.4105991233613L1314.3720919054854 503.4105991233613L1314.3720919054854 498.55971909756994Q1314.3720919054854 484.3843696888685 1310.087147882703 479.7221349974135Q1305.829153193397 475.0868496394351 1296.1273931418145 475.0868496394351L1296.1273931418145 475.0868496394351Q1293.9983957971617 475.0868496394351 1291.357361116453 475.2754949737714Q1288.7432757692209 475.46414030810774 1285.6441024194096 476.2456709789297L1285.6441024194096 476.2456709789297L1281.952043733113 488.85795904598723Q1279.2301610519744 498.1554790954207 1271.8729930128575 498.1554790954207L1271.8729930128575 498.1554790954207Q1263.7073449694421 498.1554790954207 1262.7371689642837 490.20542571981815L1262.7371689642837 490.20542571981815Q1265.4590516454223 479.1561989944045 1275.6458996995843 472.6614096265394Q1285.832747753746 466.1396709251977 1300.5740331654565 466.1396709251977L1300.5740331654565 466.1396709251977Q1315.9082039136524 466.1396709251977 1323.292321286246 473.82023096603405Q1330.649489325363 481.47384167339374 1330.649489325363 499.90718577140086L1330.649489325363 499.90718577140086L1330.649489325363 541.2474633245338Q1330.649489325363 547.4458100241561 1332.5898413356795 550.0598953713882Q1334.530193345996 552.7009300520967 1337.656316029284 552.7009300520967L1337.656316029284 552.7009300520967Q1340.162604042609 552.7009300520967 1341.9143107185896 551.5151593791255Q1343.6660173945697 550.3563380396309 1345.2021294027368 548.4159860293144L1345.2021294027368 548.4159860293144L1349.0828334233702 552.7009300520967Q1345.6063694048862 558.3063914152334 1341.4292227160104 560.5431860937928Q1337.2520760271345 562.7799807723521 1332.2125506670068 562.7799807723521ZM1277.505403709471 536.2079379644061L1277.505403709471 536.2079379644061Q1277.505403709471 543.9693460056724 1281.952043733113 547.2571646898198Q1286.4256330902317 550.5449833739673 1293.0282197920033 550.5449833739673L1293.0282197920033 550.5449833739673Q1295.9387478074782 550.5449833739673 1298.5528331547102 549.7904020366219Q1301.1669185019418 549.0088713658 1304.858977188239 546.7720766872407Q1308.5510358745355 544.5352820086813 1314.3720919054854 540.2772873193755L1314.3720919054854 540.2772873193755L1314.3720919054854 510.57912182814187Q1309.3056172118809 511.95353783544937 1304.4547371860895 513.5974471775231Q1299.603857160298 515.2413565195968 1296.5046838104872 516.4001778590914L1296.5046838104872 516.4001778590914Q1288.1773397662118 519.7149458767155 1284.0810410777658 523.1914098951993Q1280.0116917227965 526.6948232471598 1278.7450730493952 529.9826419313073Q1277.505403709471 533.2974099489313 1277.505403709471 536.2079379644061ZM1446.5046739413465 560.8396287620355L1403.0353990435606 560.8396287620355L1403.0353990435606 552.8895753864331L1420.4985671364093 550.3563380396309L1420.4985671364093 441.13068945889563L1403.0353990435606 438.9747427807661L1403.0353990435606 431.0246894051636L1438.9319112344165 431.0246894051636L1482.4011861322024 537.7440499725734L1523.5258690175224 431.0246894051636L1561.7669732208442 431.0246894051636L1561.7669732208442 438.9747427807661L1543.899565125846 441.13068945889563Q1543.7109197915097 453.33873752380384 1543.6031224576031 465.9510255908614Q1543.5222744571734 478.5633136579189 1543.5222744571734 491.17560172497645L1543.5222744571734 491.17560172497645L1543.5222744571734 500.6887164422228Q1543.5222744571734 513.112359174944 1543.6031224576031 525.616849908095Q1543.7109197915097 538.1482899747227 1543.899565125846 550.7605780417803L1543.899565125846 550.7605780417803L1561.7669732208442 552.8895753864331L1561.7669732208442 560.8396287620355L1508.9732289401481 560.8396287620355L1508.9732289401481 552.8895753864331L1525.2775756935025 550.7605780417803Q1525.6548663621752 538.5255806433954 1525.6548663621752 525.9132925763379Q1525.6548663621752 513.3010045092803 1525.6548663621752 500.87736177655916L1525.6548663621752 500.87736177655916L1525.6548663621752 452.5572068529819L1483.5600074716972 560.8396287620355L1473.8582474201144 560.8396287620355L1429.4187965171704 452.5572068529819L1430.5776178566648 489.23524971465986L1430.5776178566648 550.3563380396309L1446.5046739413465 552.8895753864331L1446.5046739413465 560.8396287620355ZM1651.2118110297415 562.7799807723521L1651.2118110297415 562.7799807723521Q1644.2319336592973 562.7799807723521 1639.5696989678422 558.7106314173827Q1634.9074642763871 554.6412820624133 1633.7486429368928 547.8500500263054L1633.7486429368928 547.8500500263054Q1625.79858956129 555.6114580675716 1619.7619388625276 559.4921620882046Q1613.7522374972418 563.3728661088378 1605.2092987851534 563.3728661088378L1605.2092987851534 563.3728661088378Q1594.5373627284125 563.3728661088378 1586.8837520210527 557.2553674096453Q1579.2301413136934 551.137868710453 1579.2301413136934 539.118465979881L1579.2301413136934 539.118465979881Q1579.2301413136934 533.4860552832677 1581.8442266609254 528.6351752574762Q1584.458312008157 523.784295231685 1591.4381893786012 519.12206054023Q1598.4180667490455 514.4598258487749 1611.4345948182527 509.7975911573199L1611.4345948182527 509.7975911573199Q1615.8812348418946 508.2614791491526 1621.702290872844 506.50977247317246Q1627.523346903794 504.7580657971922 1633.3444029347434 503.4105991233613L1633.3444029347434 503.4105991233613L1633.3444029347434 498.55971909756994Q1633.3444029347434 484.3843696888685 1629.0864082454377 479.7221349974135Q1624.828413556132 475.0868496394351 1615.1266535045493 475.0868496394351L1615.1266535045493 475.0868496394351Q1612.9707068264197 475.0868496394351 1610.3566214791877 475.2754949737714Q1607.7425361319556 475.46414030810774 1604.6433627821443 476.2456709789297L1604.6433627821443 476.2456709789297L1600.9513040958477 488.85795904598723Q1598.2294214147096 498.1554790954207 1590.8722533755922 498.1554790954207L1590.8722533755922 498.1554790954207Q1582.7066053321769 498.1554790954207 1581.7364293270189 490.20542571981815L1581.7364293270189 490.20542571981815Q1584.458312008157 479.1561989944045 1594.645160062319 472.6614096265394Q1604.8320081164807 466.1396709251977 1619.5732935281912 466.1396709251977L1619.5732935281912 466.1396709251977Q1634.9074642763871 466.1396709251977 1642.2915816489808 473.82023096603405Q1649.6487496880977 481.47384167339374 1649.6487496880977 499.90718577140086L1649.6487496880977 499.90718577140086L1649.6487496880977 541.2474633245338Q1649.6487496880977 547.4458100241561 1651.5891016984142 550.0598953713882Q1653.5294537087307 552.7009300520967 1656.628627058542 552.7009300520967L1656.628627058542 552.7009300520967Q1659.1618644053442 552.7009300520967 1660.9135710813243 551.5151593791255Q1662.6652777573045 550.3563380396309 1664.2013897654715 548.4159860293144L1664.2013897654715 548.4159860293144L1668.082093786105 552.7009300520967Q1664.605629767621 558.3063914152334 1660.428483078745 560.5431860937928Q1656.2513363898693 562.7799807723521 1651.2118110297415 562.7799807723521ZM1596.477714738729 536.2079379644061L1596.477714738729 536.2079379644061Q1596.477714738729 543.9693460056724 1600.9513040958477 547.2571646898198Q1605.4248934529664 550.5449833739673 1612.0005308212612 550.5449833739673L1612.0005308212612 550.5449833739673Q1614.9110588367362 550.5449833739673 1617.552093517445 549.7904020366219Q1620.166178864677 549.0088713658 1623.8582375509736 546.7720766872407Q1627.523346903794 544.5352820086813 1633.3444029347434 540.2772873193755L1633.3444029347434 540.2772873193755L1633.3444029347434 510.57912182814187Q1628.3048775746156 511.95353783544937 1623.4539975488246 513.5974471775231Q1618.6031175230332 515.2413565195968 1615.503944173222 516.4001778590914L1615.503944173222 516.4001778590914Q1607.1496507954703 519.7149458767155 1603.0803014405005 523.1914098951993Q1599.0109520855312 526.6948232471598 1597.7443334121303 529.9826419313073Q1596.477714738729 533.2974099489313 1596.477714738729 536.2079379644061ZM1722.2233047406316 560.8396287620355L1674.0917951513907 560.8396287620355L1674.0917951513907 553.8597513915913L1689.614611233923 551.137868710453Q1689.830205901736 543.1878153348504 1689.9110539021658 535.507255294014Q1690.0188512360724 527.8536445866544 1690.0188512360724 520.0922365453882L1690.0188512360724 520.0922365453882L1690.0188512360724 434.9053934257967L1674.0917951513907 432.9650414154802L1674.0917951513907 426.1738093793723L1704.3828459791102 417.4422253329478L1707.077779326772 419.00528667459173L1706.3231979894267 446.54750548769596L1706.3231979894267 520.0922365453882Q1706.3231979894267 527.8536445866544 1706.4040459898565 535.6150526279205Q1706.511843323763 543.3764606691867 1706.7004886580994 551.137868710453L1706.7004886580994 551.137868710453L1722.2233047406316 553.8597513915913L1722.2233047406316 560.8396287620355ZM1779.2750437106333 475.0868496394351L1779.2750437106333 475.0868496394351Q1773.8312783483561 475.0868496394351 1768.3066649856496 478.1860229892462Q1762.7820516229426 481.2851963390574 1758.7935502684031 488.0764283751653Q1754.8319982473404 494.86766041127316 1753.6462275743688 506.1324818044998L1753.6462275743688 506.1324818044998L1788.9768037622162 506.1324818044998Q1795.9566811326604 506.1324818044998 1798.1934758112197 503.22195378902495Q1800.430270489779 500.3114257735501 1800.430270489779 496.02648175076774L1800.430270489779 496.02648175076774Q1800.430270489779 490.3940710541545 1797.600590474734 485.6509883622696Q1794.7978597931656 480.9079056703847 1790.0278277678044 477.9973776549099Q1785.284745075919 475.0868496394351 1779.2750437106333 475.0868496394351ZM1779.086398376297 563.3728661088378L1779.086398376297 563.3728661088378Q1759.4672836053187 563.3728661088378 1747.636526209083 550.6527807078737Q1735.8057688128474 537.9326953069097 1735.8057688128474 515.6186471882695L1735.8057688128474 515.6186471882695Q1735.8057688128474 500.6887164422228 1741.9232675120397 489.6394897168092Q1748.0407662112325 478.5633136579189 1758.227614265394 472.36496695829663Q1768.4144623195562 466.1396709251977 1780.4338650501281 466.1396709251977L1780.4338650501281 466.1396709251977Q1790.5129157703832 466.1396709251977 1798.678563813799 470.6132602823164Q1806.8172625237376 475.0868496394351 1811.668142549529 483.3333456832804Q1816.5190225753204 491.5798417271257 1816.5190225753204 503.4105991233613L1816.5190225753204 503.4105991233613Q1816.5190225753204 506.69841780750875 1816.1417319066477 509.5280978225537Q1815.7374919044983 512.3308285041221 1815.1715559014892 514.2711805144386L1815.1715559014892 514.2711805144386L1753.2689369056961 514.2711805144386Q1753.6462275743688 532.1116392759602 1762.1891662864573 541.4361086588701Q1770.7321049985453 550.7605780417803 1784.6918597394338 550.7605780417803L1784.6918597394338 550.7605780417803Q1794.016329122344 550.7605780417803 1800.214675821966 546.960722021577Q1806.4399718550649 543.1878153348504 1811.668142549529 537.1781139695645L1811.668142549529 537.1781139695645L1816.330377240984 540.8432233223846Q1810.8866118787068 551.137868710453 1801.5890918292735 557.2553674096453Q1792.2646224463638 563.3728661088378 1779.086398376297 563.3728661088378ZM1878.7989322397862 560.8396287620355L1833.7935453338328 560.8396287620355L1833.7935453338328 553.8597513915913L1848.1575400768706 551.137868710453Q1848.346185411207 543.7537513378594 1848.453982745113 535.2377619592479Q1848.5348307455433 526.6948232471598 1848.5348307455433 520.0922365453882L1848.5348307455433 520.0922365453882L1848.5348307455433 510.76776716247815Q1848.5348307455433 502.8177137868757 1848.453982745113 497.58954309241165Q1848.346185411207 492.334423064471 1847.9688947425343 486.5133670335214L1847.9688947425343 486.5133670335214L1832.634723994338 484.78860969101777L1832.634723994338 477.9973776549099L1859.79965213877 466.1396709251977L1862.7101801542444 468.08002293551425L1864.246292162412 483.60283901804655Q1871.4417642006692 475.84143097678043 1880.7392842501026 470.9905509509891Q1890.0637536330123 466.1396709251977 1898.9839830137735 466.1396709251977L1898.9839830137735 466.1396709251977Q1911.5962710808308 466.1396709251977 1917.713769780023 474.60176163685594Q1923.8312684792159 483.0369030150376 1923.8312684792159 502.03618311605373L1923.8312684792159 502.03618311605373L1923.8312684792159 520.0922365453882Q1923.8312684792159 526.6948232471598 1923.9121164796456 535.2377619592479Q1924.0199138135522 543.7537513378594 1924.2085591478885 551.137868710453L1924.2085591478885 551.137868710453L1937.7910232201043 553.8597513915913L1937.7910232201043 560.8396287620355L1892.785636314151 560.8396287620355L1892.785636314151 553.8597513915913L1907.1496310571888 551.137868710453Q1907.3382763915251 543.9693460056724 1907.419124391955 535.3186099596778Q1907.5269217258615 526.6948232471598 1907.5269217258615 520.0922365453882L1907.5269217258615 520.0922365453882L1907.5269217258615 503.59924445769764Q1907.5269217258615 490.20542571981815 1903.754015039135 485.16590035969045Q1899.9541590189315 480.12637499956276 1891.4112203068435 480.12637499956276L1891.4112203068435 480.12637499956276Q1884.8355829385482 480.12637499956276 1878.6102869054494 482.84825768070124Q1872.4119402058272 485.54319102836314 1865.027822833234 491.768487061462L1865.027822833234 491.768487061462L1865.027822833234 520.0922365453882Q1865.027822833234 526.5061779128234 1865.1356201671406 535.1299646253415Q1865.2164681675704 543.7537513378594 1865.432062835383 551.137868710453L1865.432062835383 551.137868710453L1878.7989322397862 553.8597513915913L1878.7989322397862 560.8396287620355ZM1995.4356475265913 560.8396287620355L1950.4033112871616 560.8396287620355L1950.4033112871616 553.8597513915913L1964.9559513645358 551.137868710453Q1965.1445966988722 543.7537513378594 1965.2523940327787 535.1299646253415Q1965.3601913666848 526.5061779128234 1965.3601913666848 520.0922365453882L1965.3601913666848 520.0922365453882L1965.3601913666848 510.98336183029113Q1965.3601913666848 503.006359121212 1965.2523940327787 497.6703910928415Q1965.1445966988722 492.334423064471 1964.7673060301995 486.5133670335214L1964.7673060301995 486.5133670335214L1949.2444899476673 484.78860969101777L1949.2444899476673 477.9973776549099L1979.1313007732374 466.1396709251977L1982.0418287887123 468.08002293551425L1981.448943452226 494.4903697426005L1981.448943452226 520.0922365453882Q1981.448943452226 526.5061779128234 1981.5567407861327 535.1299646253415Q1981.6375887865624 543.7537513378594 1981.8531834543755 551.137868710453L1981.8531834543755 551.137868710453L1995.4356475265913 553.8597513915913L1995.4356475265913 560.8396287620355ZM1973.3102447422875 444.7957988117157L1973.3102447422875 444.7957988117157Q1967.8664793800103 444.7957988117157 1964.093572693284 441.319334793232Q1960.2937166730808 437.8159214412715 1960.2937166730808 432.39910541247116L1960.2937166730808 432.39910541247116Q1960.2937166730808 426.76669471585785 1964.093572693284 423.3710786978039Q1967.8664793800103 419.97546267974997 1973.3102447422875 419.97546267974997L1973.3102447422875 419.97546267974997Q1978.727060771088 419.97546267974997 1982.5269167912911 423.3710786978039Q1986.2998234780175 426.76669471585785 1986.2998234780175 432.39910541247116L1986.2998234780175 432.39910541247116Q1986.2998234780175 437.8159214412715 1982.5269167912911 441.319334793232Q1978.727060771088 444.7957988117157 1973.3102447422875 444.7957988117157ZM2082.1586026543505 562.7799807723521L2082.1586026543505 562.7799807723521Q2075.178725283906 562.7799807723521 2070.5164905924507 558.7106314173827Q2065.8542559009957 554.6412820624133 2064.6954345615013 547.8500500263054L2064.6954345615013 547.8500500263054Q2056.745381185899 555.6114580675716 2050.735679820613 559.4921620882046Q2044.6990291218503 563.3728661088378 2036.1830397432386 563.3728661088378L2036.1830397432386 563.3728661088378Q2025.5111036864978 563.3728661088378 2017.8305436456617 557.2553674096453Q2010.176932938302 551.137868710453 2010.176932938302 539.118465979881L2010.176932938302 539.118465979881Q2010.176932938302 533.4860552832677 2012.791018285534 528.6351752574762Q2015.405103632766 523.784295231685 2022.3849810032102 519.12206054023Q2029.3918077071312 514.4598258487749 2042.3813864428612 509.7975911573199L2042.3813864428612 509.7975911573199Q2046.85497579998 508.2614791491526 2052.6760318309293 506.50977247317246Q2058.497087861879 504.7580657971922 2064.3181438928286 503.4105991233613L2064.3181438928286 503.4105991233613L2064.3181438928286 498.55971909756994Q2064.3181438928286 484.3843696888685 2060.0331998700462 479.7221349974135Q2055.7752051807406 475.0868496394351 2046.0734451291578 475.0868496394351L2046.0734451291578 475.0868496394351Q2043.944447784505 475.0868496394351 2041.3034131037962 475.2754949737714Q2038.6893277565641 475.46414030810774 2035.5901544067528 476.2456709789297L2035.5901544067528 476.2456709789297L2031.8980957204567 488.85795904598723Q2029.176213039318 498.1554790954207 2021.8190450002012 498.1554790954207L2021.8190450002012 498.1554790954207Q2013.6533969567854 498.1554790954207 2012.6832209516274 490.20542571981815L2012.6832209516274 490.20542571981815Q2015.405103632766 479.1561989944045 2025.5919516869276 472.6614096265394Q2035.7787997410896 466.1396709251977 2050.5200851527998 466.1396709251977L2050.5200851527998 466.1396709251977Q2065.8542559009957 466.1396709251977 2073.2383732735893 473.82023096603405Q2080.5955413127062 481.47384167339374 2080.5955413127062 499.90718577140086L2080.5955413127062 499.90718577140086L2080.5955413127062 541.2474633245338Q2080.5955413127062 547.4458100241561 2082.5358933230227 550.0598953713882Q2084.476245333339 552.7009300520967 2087.602368016627 552.7009300520967L2087.602368016627 552.7009300520967Q2090.1086560299527 552.7009300520967 2091.860362705933 551.5151593791255Q2093.612069381913 550.3563380396309 2095.1481813900805 548.4159860293144L2095.1481813900805 548.4159860293144L2099.0288854107134 552.7009300520967Q2095.55242139223 558.3063914152334 2091.3752747033536 560.5431860937928Q2087.198128014478 562.7799807723521 2082.1586026543505 562.7799807723521ZM2027.4514556968143 536.2079379644061L2027.4514556968143 536.2079379644061Q2027.4514556968143 543.9693460056724 2031.8980957204567 547.2571646898198Q2036.371685077575 550.5449833739673 2042.9742717793465 550.5449833739673L2042.9742717793465 550.5449833739673Q2045.8847997948214 550.5449833739673 2048.4988851420535 549.7904020366219Q2051.1129704892855 549.0088713658 2054.8050291755826 546.7720766872407Q2058.497087861879 544.5352820086813 2064.3181438928286 540.2772873193755L2064.3181438928286 540.2772873193755L2064.3181438928286 510.57912182814187Q2059.251669199224 511.95353783544937 2054.400789173433 513.5974471775231Q2049.5499091476418 515.2413565195968 2046.4507357978305 516.4001778590914L2046.4507357978305 516.4001778590914Q2038.123391753555 519.7149458767155 2034.027093065109 523.1914098951993Q2029.9577437101398 526.6948232471598 2028.6911250367389 529.9826419313073Q2027.4514556968143 533.2974099489313 2027.4514556968143 536.2079379644061Z " fill="#1f2f33" transform="matrix(0.4168594432510712,0,0,0.41685944325107116,0,96.25988842468854)"/></g></svg>